<?xml version="1.0" encoding="UTF-8" standalone="no"?>
<svg
   version="1.1"
   width="256"
   height="256"
   style="clip-rule:evenodd;fill-rule:evenodd;image-rendering:optimizeQuality;shape-rendering:geometricPrecision;text-rendering:geometricPrecision"
   id="svg21"
   sodipodi:docname="unnamed.svg"
   inkscape:version="1.3.2 (091e20e, 2023-11-25, custom)"
   inkscape:export-filename="logo.png"
   inkscape:export-xdpi="96"
   inkscape:export-ydpi="96"
   xmlns:inkscape="http://www.inkscape.org/namespaces/inkscape"
   xmlns:sodipodi="http://sodipodi.sourceforge.net/DTD/sodipodi-0.dtd"
   xmlns="http://www.w3.org/2000/svg"
   xmlns:svg="http://www.w3.org/2000/svg">
  <defs
     id="defs21" />
  <sodipodi:namedview
     id="namedview21"
     pagecolor="#ffffff"
     bordercolor="#000000"
     borderopacity="0.25"
     inkscape:showpageshadow="2"
     inkscape:pageopacity="0.0"
     inkscape:pagecheckerboard="0"
     inkscape:deskcolor="#d1d1d1"
     inkscape:zoom="1.7763672"
     inkscape:cx="238.97086"
     inkscape:cy="207.44585"
     inkscape:window-width="3840"
     inkscape:window-height="2054"
     inkscape:window-x="-11"
     inkscape:window-y="-11"
     inkscape:window-maximized="1"
     inkscape:current-layer="svg21" />
  <g
     id="g1"
     transform="matrix(0.5579989,0,0,1.106652,-14.857615,-154.19406)">
    <path
       style="opacity:1"
       fill="#abb2b1"
       d="m -0.5,-0.5 c 85.3333,0 170.667,0 256,0 -0.167,57.6676 0,115.334 0.5,173 1.419,-0.96 2.919,-1.793 4.5,-2.5 47.666,-0.5 95.332,-0.667 143,-0.5 7.823,0.829 15.823,1.329 24,1.5 2.667,1 5.333,2 8,3 -0.828,0.915 -1.828,1.581 -3,2 -55.667,0.333 -111.333,0.667 -167,1 60.168,0.167 120.168,0.667 180,1.5 -61.334,-0.167 -122.668,0 -184,0.5 -2.635,1.961 -4.469,4.461 -5.5,7.5 -0.667,12 -0.667,24 0,36 4.745,3.622 9.578,7.122 14.5,10.5 8.644,9.105 11.978,19.938 10,32.5 -3.045,-0.008 -6.045,-0.341 -9,-1 1,-7.877 -0.5,-15.211 -4.5,-22 -21.121,-16.119 -41.954,-32.619 -62.5,-49.5 5.657,-0.499 11.324,-0.666 17,-0.5 0,-3 0,-6 0,-9 -10.487,-0.994 -21.154,-1.328 -32,-1 -0.328,11.512 0.005,22.846 1,34 3,0 6,0 9,0 -0.166,-5.011 0.001,-10.011 0.5,-15 14.893,12.527 30.059,24.694 45.5,36.5 7.709,5.92 11.209,13.754 10.5,23.5 0.725,2.449 1.725,4.783 3,7 17.224,14.692 34.724,29.025 52.5,43 0.995,-5.292 1.328,-10.625 1,-16 3,0 6,0 9,0 0,11.333 0,22.667 0,34 -10.667,0 -21.333,0 -32,0 0,-3 0,-6 0,-9 5.706,0.329 11.372,-0.005 17,-1 -0.124,-0.607 -0.457,-0.94 -1,-1 -20.336,-16.833 -40.836,-33.499 -61.5,-50 -3.438,-6.511 -5.105,-13.511 -5,-21 -6.407,-3.447 -9.24,-1.447 -8.5,6 -0.105,11.29 4.229,20.457 13,27.5 3.833,2.5 7.667,5 11.5,7.5 0.667,12.333 0.667,24.667 0,37 -1.892,3.558 -4.725,6.058 -8.5,7.5 -60,0.667 -120,0.667 -180,0 -7.2754,-2.275 -11.7754,-7.108 -13.5,-14.5 -0.6667,-42.667 -0.6667,-85.333 0,-128 2.4896,-6.988 7.323,-11.321 14.5,-13 41.667,0 83.333,0 125,0 0,-2.667 0,-5.333 0,-8 -42.165,-1.165 -84.498,-1.331 -127,-0.5 -10.7292,3.062 -17.8959,9.895 -21.5,20.5 -0.9793,45.046 -0.646,90.046 1,135 3.9841,8.651 10.4841,14.485 19.5,17.5 61.333,0.667 122.667,0.667 184,0 2.018,-0.505 4.018,-1.005 6,-1.5 0.999,56.831 1.332,113.831 1,171 -85.333,0 -170.6667,0 -256,0 0,-170.667 0,-341.333 0,-512 z"
       id="path1" />
  </g>
  <g
     id="g2"
     transform="matrix(0.5579989,0,0,1.106652,-14.857615,-154.19406)"
     style="fill:#0b3357;fill-opacity:1">
    <path
       style="opacity:1;fill:#0b3357;fill-opacity:1"
       fill="#44585a"
       d="m 255.5,-0.5 c 85.333,0 170.667,0 256,0 0,170.667 0,341.333 0,512 -85,0 -170,0 -255,0 0.333,-57.337 0,-114.671 -1,-172 -0.607,0.124 -0.94,0.457 -1,1 -1.982,0.495 -3.982,0.995 -6,1.5 -61.333,0.667 -122.667,0.667 -184,0 -9.0159,-3.015 -15.5159,-8.849 -19.5,-17.5 -1.646,-44.954 -1.9793,-89.954 -1,-135 3.6041,-10.605 10.7708,-17.438 21.5,-20.5 42.502,-0.831 84.835,-0.665 127,0.5 -0.968,2.107 -1.302,4.441 -1,7 -41.503,-0.332 -82.837,0.001 -124,1 -7.177,1.679 -12.0104,6.012 -14.5,13 -0.6667,42.667 -0.6667,85.333 0,128 1.7246,7.392 6.2246,12.225 13.5,14.5 60,0.667 120,0.667 180,0 3.775,-1.442 6.608,-3.942 8.5,-7.5 0.667,-12.333 0.667,-24.667 0,-37 -3.833,-2.5 -7.667,-5 -11.5,-7.5 -8.771,-7.043 -13.105,-16.21 -13,-27.5 -0.74,-7.447 2.093,-9.447 8.5,-6 -0.105,7.489 1.562,14.489 5,21 20.664,16.501 41.164,33.167 61.5,50 -5.333,0.667 -10.667,1.333 -16,2 0,3 0,6 0,9 10.667,0 21.333,0 32,0 0,-11.333 0,-22.667 0,-34 -3,0 -6,0 -9,0 0.328,5.375 -0.005,10.708 -1,16 -17.776,-13.975 -35.276,-28.308 -52.5,-43 -1.275,-2.217 -2.275,-4.551 -3,-7 0.709,-9.746 -2.791,-17.58 -10.5,-23.5 -15.441,-11.806 -30.607,-23.973 -45.5,-36.5 -0.499,4.989 -0.666,9.989 -0.5,15 -3,0 -6,0 -9,0 0,-11 0,-22 0,-33 10.333,0 20.667,0 31,0 0,3 0,6 0,9 -5.676,-0.166 -11.343,0.001 -17,0.5 20.546,16.881 41.379,33.381 62.5,49.5 4,6.789 5.5,14.123 4.5,22 2.955,0.659 5.955,0.992 9,1 1.978,-12.562 -1.356,-23.395 -10,-32.5 -4.922,-3.378 -9.755,-6.878 -14.5,-10.5 -0.667,-12 -0.667,-24 0,-36 1.031,-3.039 2.865,-5.539 5.5,-7.5 61.332,-0.5 122.666,-0.667 184,-0.5 8.157,1.332 13.323,5.999 15.5,14 0.667,41.333 0.667,82.667 0,124 -1.5,9.5 -7,15 -16.5,16.5 -42.333,0.333 -84.667,0.667 -127,1 -1.333,2.667 -1.333,5.333 0,8 43,0.667 86,0.667 129,0 12.535,-3.202 20.369,-11.035 23.5,-23.5 0.667,-42.333 0.667,-84.667 0,-127 -3.097,-10.763 -9.931,-17.93 -20.5,-21.5 -15.33,-0.5 -30.663,-0.667 -46,-0.5 -47.668,-0.167 -95.334,0 -143,0.5 -1.581,0.707 -3.081,1.54 -4.5,2.5 -0.5,-57.666 -0.667,-115.3324 -0.5,-173 z"
       id="path2" />
  </g>
  <g
     id="g3"
     transform="matrix(0.5579989,0,0,1.106652,-14.857615,-154.19406)">
    <path
       style="opacity:1"
       fill="#798889"
       d="m 305.5,318.5 c 0.543,0.06 0.876,0.393 1,1 -5.628,0.995 -11.294,1.329 -17,1 5.333,-0.667 10.667,-1.333 16,-2 z"
       id="path3" />
  </g>
  <g
     id="g4"
     transform="matrix(0.7001414,0,0,1.106652,-24.310086,-154.19406)"
     style="fill:#0b3357;fill-opacity:1">
    <path
       style="opacity:1;fill:#0b3357;fill-opacity:1"
       fill="#44575a"
       d="m 68.5,286.5 c 12.7604,5.919 26.2604,8.585 40.5,8 7.865,-0.041 15.698,-0.541 23.5,-1.5 7.384,-1.224 14.384,-3.224 21,-6 0.5,0.5 1,1 1.5,1.5 0.667,9.667 0.667,19.333 0,29 -1.731,2.117 -3.898,3.617 -6.5,4.5 -6.215,1.869 -12.548,3.203 -19,4 -13,0.667 -26,0.667 -39,0 -7.0378,-0.791 -13.7045,-2.791 -20,-6 -1.5488,-1.214 -2.7155,-2.714 -3.5,-4.5 -0.6667,-9 -0.6667,-18 0,-27 0.7172,-0.544 1.2172,-1.211 1.5,-2 z"
       id="path4" />
  </g>
  <g
     id="g5"
     transform="matrix(0.7001414,0,0,1.106652,-24.310086,-154.19406)">
    <path
       style="opacity:1"
       fill="#a9b1b0"
       d="m 74.5,297.5 c 24.6323,6.537 49.299,6.537 74,0 0.307,5.593 -0.027,11.093 -1,16.5 -21.055,6.086 -42.388,7.086 -64,3 -2.876,-0.438 -5.5427,-1.438 -8,-3 -0.9732,-5.407 -1.3066,-10.907 -1,-16.5 z"
       id="path5" />
  </g>
  <g
     id="g6"
     transform="matrix(0.79519841,0,0,1.106652,-121.24166,-154.19406)">
    <path
       style="opacity:1"
       fill="#acb4b2"
       d="m 370.5,283.5 c 6.057,3.022 12.391,5.522 19,7.5 12.33,1.97 24.663,1.97 37,0 5.632,-1.211 10.966,-3.211 16,-6 2.201,-0.825 4.034,-0.325 5.5,1.5 0.667,8 0.667,16 0,24 -1.588,4.552 -4.755,7.385 -9.5,8.5 -19.254,5.51 -38.587,5.843 -58,1 -4.891,-1.516 -8.724,-4.35 -11.5,-8.5 -0.667,-8.333 -0.667,-16.667 0,-25 0.513,-1.027 1.013,-2.027 1.5,-3 z"
       id="path6" />
  </g>
  <g
     id="g7"
     transform="matrix(0.79519841,0,0,1.106652,-121.24166,-154.19406)"
     style="fill:#0b3357;fill-opacity:1">
    <path
       style="opacity:1;fill:#0b3357;fill-opacity:1"
       fill="#45595b"
       d="m 377.5,296.5 c 20.321,5.313 40.654,5.313 61,0 0.3,4.599 -0.033,9.099 -1,13.5 -19.39,7.118 -38.723,7.118 -58,0 -0.5,-0.5 -1,-1 -1.5,-1.5 -0.499,-3.986 -0.666,-7.986 -0.5,-12 z"
       id="path7" />
  </g>
  <g
     id="g8"
     transform="matrix(0.7001414,0,0,1.106652,-24.310086,-154.19406)"
     style="fill:#0b3357;fill-opacity:1">
    <path
       style="opacity:1;fill:#0b3357;fill-opacity:1"
       fill="#44575a"
       d="m 68.5,247.5 c 5.8723,2.094 11.8723,3.928 18,5.5 15.998,1.979 31.998,1.979 48,0 5.268,-0.867 10.268,-2.534 15,-5 2.201,-0.825 4.034,-0.325 5.5,1.5 0.667,9 0.667,18 0,27 -1.944,3.234 -4.778,5.4 -8.5,6.5 -24.132,6.285 -48.1319,5.952 -72,-1 -2.6024,-0.883 -4.7691,-2.383 -6.5,-4.5 -0.8066,-10.077 -0.64,-20.077 0.5,-30 z"
       id="path8" />
  </g>
  <g
     id="g9"
     transform="matrix(0.7001414,0,0,1.106652,-24.310086,-154.19406)">
    <path
       style="opacity:1"
       fill="#aab2b1"
       d="m 74.5,257.5 c 24.3013,6.49 48.635,6.49 73,0 1.162,4.967 1.329,9.967 0.5,15 -1.319,1.987 -3.152,3.154 -5.5,3.5 -19.605,4.193 -39.272,4.527 -59,1 -3.1978,-0.848 -6.0311,-2.348 -8.5,-4.5 -0.4993,-4.989 -0.6659,-9.989 -0.5,-15 z"
       id="path9" />
  </g>
  <g
     id="g10"
     transform="matrix(0.79519841,0,0,1.106652,-121.24166,-154.19406)">
    <path
       style="opacity:1"
       fill="#acb4b2"
       d="m 443.5,240.5 c 1.322,-0.17 2.489,0.163 3.5,1 0.667,9.333 0.667,18.667 0,28 -2.631,3.579 -6.131,6.079 -10.5,7.5 -13.371,4.079 -27.038,5.412 -41,4 -9.139,-0.821 -17.305,-3.988 -24.5,-9.5 -0.667,-1.333 -1.333,-2.667 -2,-4 -0.667,-8 -0.667,-16 0,-24 1.466,-1.825 3.299,-2.325 5.5,-1.5 4.696,3.681 10.029,6.014 16,7 16.391,2.953 32.391,1.62 48,-4 1.563,-1.736 3.23,-3.236 5,-4.5 z"
       id="path10" />
  </g>
  <g
     id="g11"
     transform="matrix(0.79519841,0,0,1.106652,-121.24166,-154.19406)"
     style="fill:#0b3357;fill-opacity:1">
    <path
       style="opacity:1;fill:#0b3357;fill-opacity:1"
       fill="#44575b"
       d="m 377.5,253.5 c 9.355,4.17 19.189,5.836 29.5,5 10.743,0.393 21.243,-0.94 31.5,-4 0.166,4.014 -10e-4,8.014 -0.5,12 -9.169,4.837 -19.002,6.837 -29.5,6 -9.701,0.591 -19.034,-0.909 -28,-4.5 -0.833,-0.833 -1.667,-1.667 -2.5,-2.5 -0.499,-3.986 -0.666,-7.986 -0.5,-12 z"
       id="path11" />
  </g>
  <g
     id="g12"
     transform="matrix(0.5579989,0,0,1.106652,-14.857615,-154.19406)">
    <path
       style="opacity:1"
       fill="#798787"
       d="m 221.5,183.5 c -10.333,0 -20.667,0 -31,0 0,11 0,22 0,33 -0.995,-11.154 -1.328,-22.488 -1,-34 10.846,-0.328 21.513,0.006 32,1 z"
       id="path12" />
  </g>
  <g
     id="g13"
     transform="matrix(0.7001414,0,0,1.106652,-24.310086,-154.19406)"
     style="fill:#0b3357;fill-opacity:1">
    <path
       style="opacity:1;fill:#0b3357;fill-opacity:1"
       fill="#45575a"
       d="m 95.5,192.5 c 16.154,-0.762 32.154,0.405 48,3.5 4.369,1.267 8.203,3.433 11.5,6.5 0.667,11.667 0.667,23.333 0,35 -3.005,3.587 -6.838,5.754 -11.5,6.5 -18.885,3.781 -37.885,4.448 -57,2 -6.0176,-1.006 -11.6843,-3.006 -17,-6 -1.3932,-1.171 -2.2265,-2.671 -2.5,-4.5 -0.6667,-10.667 -0.6667,-21.333 0,-32 1.8734,-2.209 4.04,-4.042 6.5,-5.5 7.3121,-2.495 14.6454,-4.328 22,-5.5 z"
       id="path13" />
  </g>
  <g
     id="g14"
     transform="matrix(0.7001414,0,0,1.106652,-24.310086,-154.19406)">
    <path
       style="opacity:1"
       fill="#abb3b2"
       d="m 147.5,217.5 c 1.151,5.15 1.317,10.484 0.5,16 -0.903,1.201 -2.069,2.035 -3.5,2.5 -17.162,3.339 -34.496,4.339 -52,3 -6.4022,-0.222 -12.2355,-2.055 -17.5,-5.5 -0.8289,-5.033 -0.6623,-10.033 0.5,-15 20.43,5.657 41.097,6.49 62,2.5 3.609,-0.701 6.942,-1.868 10,-3.5 z"
       id="path14" />
  </g>
  <g
     id="g15"
     transform="matrix(0.7001414,0,0,1.106652,-24.310086,-154.19406)">
    <path
       style="opacity:1"
       fill="#a9b1af"
       d="m 92.5,200.5 c 11.338,-0.167 22.672,0 34,0.5 5.726,0.677 11.393,1.677 17,3 6.277,1.567 6.611,3.901 1,7 -3.847,1.616 -7.847,2.616 -12,3 -12.632,1.488 -25.299,1.821 -38,1 -5.8512,-0.546 -11.5179,-1.879 -17,-4 -5.4135,-2.889 -5.0801,-5.222 1,-7 4.8411,-0.995 9.5078,-2.162 14,-3.5 z"
       id="path15" />
  </g>
  <g
     id="g16"
     transform="matrix(0.79519841,0,0,1.106652,-121.24166,-154.19406)">
    <path
       style="opacity:1"
       fill="#acb4b3"
       d="m 395.5,187.5 c 9.006,-0.166 18.006,0 27,0.5 9.316,0.988 17.482,4.488 24.5,10.5 0.667,9.667 0.667,19.333 0,29 -2.592,3.262 -5.759,5.762 -9.5,7.5 -18.586,5.497 -37.252,5.83 -56,1 -6.45,-1.456 -10.616,-5.289 -12.5,-11.5 -0.667,-8 -0.667,-16 0,-24 2.92,-4.72 7.087,-7.887 12.5,-9.5 4.724,-1.494 9.391,-2.661 14,-3.5 z"
       id="path16" />
  </g>
  <g
     id="g17"
     transform="matrix(0.79519841,0,0,1.106652,-121.24166,-154.19406)"
     style="fill:#0b3357;fill-opacity:1">
    <path
       style="opacity:1;fill:#0b3357;fill-opacity:1"
       fill="#45575b"
       d="m 377.5,212.5 c 20.189,6.655 40.356,6.655 60.5,0 0.828,4.371 0.661,8.705 -0.5,13 -5.457,2.281 -11.123,3.781 -17,4.5 -9.333,0.667 -18.667,0.667 -28,0 -5.282,-0.694 -10.115,-2.527 -14.5,-5.5 -0.499,-3.986 -0.666,-7.986 -0.5,-12 z"
       id="path17" />
  </g>
  <g
     id="g18"
     transform="matrix(0.79519841,0,0,1.106652,-121.24166,-154.19406)"
     style="fill:#0b3357;fill-opacity:1">
    <path
       style="opacity:1;fill:#0b3357;fill-opacity:1"
       fill="#47595d"
       d="m 399.5,195.5 c 8.375,-0.184 16.708,0.316 25,1.5 5.045,0.958 9.712,2.791 14,5.5 -1.653,1.621 -3.653,2.788 -6,3.5 -13.203,3.561 -26.536,4.228 -40,2 -5.429,-0.753 -10.429,-2.587 -15,-5.5 6.953,-3.813 14.287,-6.147 22,-7 z"
       id="path18" />
  </g>
  <g
     id="g19"
     transform="matrix(0.5579989,0,0,1.106652,-14.857615,-154.19406)">
    <path
       style="opacity:1"
       fill="#aeb6b5"
       d="m 403.5,169.5 c 15.337,-0.167 30.67,0 46,0.5 10.569,3.57 17.403,10.737 20.5,21.5 0.667,42.333 0.667,84.667 0,127 -3.131,12.465 -10.965,20.298 -23.5,23.5 -43,0.667 -86,0.667 -129,0 -1.333,-2.667 -1.333,-5.333 0,-8 42.333,-0.333 84.667,-0.667 127,-1 9.5,-1.5 15,-7 16.5,-16.5 0.667,-41.333 0.667,-82.667 0,-124 -2.177,-8.001 -7.343,-12.668 -15.5,-14 -59.832,-0.833 -119.832,-1.333 -180,-1.5 55.667,-0.333 111.333,-0.667 167,-1 1.172,-0.419 2.172,-1.085 3,-2 -2.667,-1 -5.333,-2 -8,-3 -8.177,-0.171 -16.177,-0.671 -24,-1.5 z"
       id="path19" />
  </g>
  <g
     id="g20"
     transform="matrix(0.5579989,0,0,1.106652,-14.857615,-154.19406)">
    <path
       style="opacity:1"
       fill="#384a4d"
       d="m 192.5,169.5 c 0,2.667 0,5.333 0,8 -41.667,0 -83.333,0 -125,0 41.163,-0.999 82.497,-1.332 124,-1 -0.302,-2.559 0.032,-4.893 1,-7 z"
       id="path20" />
  </g>
  <g
     id="g21"
     transform="matrix(0.5579989,0,0,1.106652,-14.857615,-154.19406)">
    <path
       style="opacity:1"
       fill="#536364"
       d="m 254.5,340.5 c 0.06,-0.543 0.393,-0.876 1,-1 1,57.329 1.333,114.663 1,172 -0.333,0 -0.667,0 -1,0 0.332,-57.169 -0.001,-114.169 -1,-171 z"
       id="path21" />
  </g>
</svg>
